<?xml version="1.0" encoding="iso-8859-1"?>
<!-- Generator: Adobe Illustrator 19.0.0, SVG Export Plug-In . SVG Version: 6.00 Build 0)  -->
<svg version="1.1" id="Layer_1" xmlns="http://www.w3.org/2000/svg" xmlns:xlink="http://www.w3.org/1999/xlink" x="0px" y="0px"
	 viewBox="0 0 512 512" style="enable-background:new 0 0 512 512;" xml:space="preserve">
<path style="fill:#0069A3;" d="M495.484,512H303.473c-9.121,0-16.516-7.395-16.516-16.516c0-9.121,7.395-16.516,16.516-16.516
	h175.496V303.473c0-9.121,7.395-16.516,16.516-16.516c9.121,0,16.516,7.395,16.516,16.516v192.011
	C512,504.605,504.605,512,495.484,512z M208.527,512H16.516C7.395,512,0,504.605,0,495.484V303.473
	c0-9.121,7.395-16.516,16.516-16.516s16.516,7.395,16.516,16.516v175.496h175.496c9.121,0,16.516,7.395,16.516,16.516
	C225.043,504.605,217.648,512,208.527,512z M495.484,225.043c-9.121,0-16.516-7.395-16.516-16.516V33.032H303.473
	c-9.121,0-16.516-7.395-16.516-16.516S294.352,0,303.473,0h192.011C504.605,0,512,7.395,512,16.516v192.011
	C512,217.648,504.605,225.043,495.484,225.043z M16.516,225.043C7.395,225.043,0,217.648,0,208.527V16.516C0,7.395,7.395,0,16.516,0
	h192.011c9.121,0,16.516,7.395,16.516,16.516s-7.395,16.516-16.516,16.516H33.032v175.496
	C33.032,217.648,25.637,225.043,16.516,225.043z"/>
<circle style="fill:#F5DF5D;" cx="255.996" cy="256.238" r="183.877"/>
<path style="opacity:0.1;enable-background:new    ;" d="M252.104,314.946L252.104,314.946c-12.583,0-22.783-10.2-22.783-22.783
	V256.29c0-12.583,10.2-22.783,22.783-22.783l0,0c12.583,0,22.783,10.2,22.783,22.783v35.872
	C274.887,304.746,264.687,314.946,252.104,314.946z"/>
<path style="opacity:0.1;enable-background:new    ;" d="M174.626,203.98c54.345,0,104.154-19.404,142.891-51.653
	c26.379,14.937,56.86,23.472,89.338,23.472c4.798,0,9.547-0.204,14.251-0.571c-29.952-60.93-92.628-102.87-165.106-102.87
	c-101.554,0-183.88,82.326-183.88,183.88s82.326,183.88,183.88,183.88c54.631,0,103.688-23.832,137.367-61.658
	c-32.489,28.927-75.298,46.513-122.222,46.513c-101.554,0-183.88-82.326-183.88-183.88c0-18.011,2.6-35.411,7.429-51.859
	C119.514,198.749,146.456,203.98,174.626,203.98z"/>
<g>
	<path style="fill:#4A5058;" d="M196.779,255.814c-4.561,0-8.258-3.697-8.258-8.258c0-11.147-9.068-20.215-20.215-20.215
		s-20.215,9.068-20.215,20.215c0,4.561-3.697,8.258-8.258,8.258c-4.561,0-8.258-3.697-8.258-8.258
		c0-20.254,16.477-36.731,36.731-36.731s36.731,16.477,36.731,36.731C205.037,252.117,201.34,255.814,196.779,255.814z"/>
	<path style="fill:#4A5058;" d="M372.168,255.814c-4.561,0-8.258-3.697-8.258-8.258c0-11.147-9.068-20.215-20.215-20.215
		c-11.146,0-20.215,9.068-20.215,20.215c0,4.561-3.697,8.258-8.258,8.258s-8.258-3.697-8.258-8.258
		c0-20.254,16.477-36.731,36.731-36.731s36.731,16.477,36.731,36.731C380.426,252.117,376.728,255.814,372.168,255.814z"/>
	<path style="fill:#4A5058;" d="M255.999,384.225c-43.805,0-79.441-35.638-79.441-79.441c0-4.561,3.697-8.258,8.258-8.258
		c4.561,0,8.258,3.697,8.258,8.258c0,34.698,28.229,62.926,62.926,62.926s62.926-28.229,62.926-62.926
		c0-4.561,3.697-8.258,8.258-8.258s8.258,3.697,8.258,8.258C335.442,348.589,299.804,384.225,255.999,384.225z"/>
</g>
<path id="SVGCleanerId_0" style="fill:#394049;" d="M255.999,58.011c-74.775,0-139.869,41.41-173.628,102.54
	c-2.332,4.223-0.562,9.515,3.837,11.495c26.716,12.025,56.346,18.725,87.544,18.725c51.934,0,99.532-18.544,136.553-49.362
	c25.209,14.274,54.337,22.431,85.375,22.431c6.847,0,13.6-0.4,20.24-1.174c6.688-0.78,10.249-8.354,6.59-14.007
	C387.197,94.113,325.819,58.011,255.999,58.011z"/>
<g>
	<path id="SVGCleanerId_0_1_" style="fill:#394049;" d="M255.999,58.011c-74.775,0-139.869,41.41-173.628,102.54
		c-2.332,4.223-0.562,9.515,3.837,11.495c26.716,12.025,56.346,18.725,87.544,18.725c51.934,0,99.532-18.544,136.553-49.362
		c25.209,14.274,54.337,22.431,85.375,22.431c6.847,0,13.6-0.4,20.24-1.174c6.688-0.78,10.249-8.354,6.59-14.007
		C387.197,94.113,325.819,58.011,255.999,58.011z"/>
</g>
<path style="opacity:0.2;enable-background:new    ;" d="M422.707,149.015c-1.017,0.579-2.173,0.976-3.445,1.124
	c-6.639,0.774-13.392,1.174-20.239,1.174c-29.74,0-57.727-7.489-82.193-20.672c-1.958-1.055-4.351-0.777-6.086,0.615
	c-36.59,29.394-83.064,46.988-133.65,46.988c-31.198,0-60.828-6.7-87.544-18.725c-1.951-0.879-3.382-2.409-4.171-4.209
	c-1.026,1.732-2.034,3.477-3.009,5.242c-2.341,4.239-0.475,9.557,3.942,11.542c26.689,11.995,56.283,18.678,87.441,18.678
	c51.934,0,99.532-18.544,136.553-49.362c25.209,14.274,54.337,22.431,85.375,22.431c6.847,0,13.6-0.4,20.24-1.174
	C422.472,161.904,426.004,154.625,422.707,149.015z"/>
<path style="fill:#E45D4C;" d="M255.999,311.05L255.999,311.05c-12.583,0-22.783-10.2-22.783-22.783v-35.873
	c0-12.583,10.2-22.783,22.783-22.783l0,0c12.583,0,22.783,10.2,22.783,22.783v35.873C278.783,300.85,268.582,311.05,255.999,311.05z
	"/>
<path style="opacity:0.1;enable-background:new    ;" d="M261.027,305.781L261.027,305.781c-12.583,0-22.783-10.2-22.783-22.782
	v-35.872c0-4.761,1.464-9.178,3.962-12.833c-5.455,4.162-8.989,10.712-8.989,18.103v35.873c0,12.583,10.2,22.783,22.783,22.783
	c7.822,0,14.718-3.944,18.82-9.949C270.989,304.024,266.218,305.781,261.027,305.781z"/>
<g>
</g>
<g>
</g>
<g>
</g>
<g>
</g>
<g>
</g>
<g>
</g>
<g>
</g>
<g>
</g>
<g>
</g>
<g>
</g>
<g>
</g>
<g>
</g>
<g>
</g>
<g>
</g>
<g>
</g>
</svg>
